PathFileType	4	(X/Y/Z)	Patient3_R_KneeIso_Processed.trc
DataRate	CameraRate	NumFrames	NumMarkers	Units	OrigDataRate	OrigDataStartFrame	OrigNumFrames
100.000000000000	100.000000000000	6	33	mm	100.000000000000	151	       301
Frame#	Time	L.Toe			Neck			R.Toe			R.Shoulder			L.Wrist			L.Shank.Lateral			L.Elbow			R.Shank.Lateral			L.Shoulder			R.Midfoot.Lateral			L.Midfoot.Superior			R.Midfoot.Superior			R.Heel			R.Thigh.Lateral			L.Heel			R.Patella			L.Midfoot.Lateral			R.Elbow			R.Wrist			R.Shank.Inferior			Sternum			R.Thigh.Inferior			L.Shank.Inferior			R.Shank.Superior			L.Thigh.Superior			R.Thigh.Superior			R.Asis			L.Asis			L.Shank.Superior			L.Patella			Sacral			L.Thigh.Lateral			L.Thigh.Inferior			
		X1	Y1	Z1	X2	Y2	Z2	X3	Y3	Z3	X4	Y4	Z4	X5	Y5	Z5	X6	Y6	Z6	X7	Y7	Z7	X8	Y8	Z8	X9	Y9	Z9	X10	Y10	Z10	X11	Y11	Z11	X12	Y12	Z12	X13	Y13	Z13	X14	Y14	Z14	X15	Y15	Z15	X16	Y16	Z16	X17	Y17	Z17	X18	Y18	Z18	X19	Y19	Z19	X20	Y20	Z20	X21	Y21	Z21	X22	Y22	Z22	X23	Y23	Z23	X24	Y24	Z24	X25	Y25	Z25	X26	Y26	Z26	X27	Y27	Z27	X28	Y28	Z28	X29	Y29	Z29	X30	Y30	Z30	X31	Y31	Z31	X32	Y32	Z32	X33	Y33	Z33	

151	2.500000000000	650.412194135235	42.587260613484	367.148867851254	460.731439454890	1482.217433073737	355.253576972394	148.836101887659	378.159938833617	649.551235521766	504.805320078802	1461.091635994054	500.249941675557	519.173113238410	1071.775444454403	-42.005972617072	413.308412172228	322.149990258620	297.002718237877	329.952278938620	1140.069636834453	119.668623000363	460.111282847929	583.278171120368	646.793811902168	486.894678122118	1442.548111138364	208.334146712376	137.267881516480	594.457308824885	636.937747908948	532.052279075603	89.702986931406	388.995146527841	196.868986521522	498.455110243082	611.415637736368	139.600174492305	662.077435357477	557.347595304437	565.271191441039	699.246690860912	627.871077457011	363.576960003870	32.975376889327	437.576435552518	644.876811050018	494.041696562345	581.522198708391	434.965906410223	27.171420313420	364.897852924575	526.703325738307	1155.556518017717	674.086336598303	660.638867018114	1235.739972494584	475.806077898750	322.464744237139	527.467457273151	603.405177523253	596.296782010420	1384.619531296269	356.128375179112	658.340674620210	641.432576361607	564.846946305727	489.372508862417	230.140865840802	364.102599693933	493.828532571671	485.717360982339	611.210378953274	594.557053825736	721.579822325714	281.885660357409	637.602974361978	753.311515140927	556.796007975269	563.167466578326	992.233420925328	521.739634126895	566.849247857141	951.335055819845	260.883634391324	506.388989792356	382.044905730354	328.816791791127	548.236191954661	490.705415735199	336.514199261368	394.519095235028	1007.989341919563	390.330926688724	487.211649880726	652.600412832434	251.584923611341	566.300402077392	599.244850879488	308.149651511940	
152	2.510000000000	650.414630367387	42.588451284361	367.144160712720	460.961718755401	1482.251499547393	355.267558286495	149.570489214597	378.916258940574	649.322254166951	505.122525287881	1461.036817437317	500.220786560929	519.017432473499	1071.924945298691	-42.105971475966	413.196845007300	322.139695821867	296.952812337070	329.861858520643	1140.222817556753	119.635124838242	461.026151310978	583.660921937943	646.747682804349	486.977722054844	1442.603381249809	208.315135584474	138.225947346138	595.225476601955	636.802548610470	532.060156513628	89.707777657672	388.981494559236	197.734796435408	499.177257490000	611.254618658730	140.644718715305	662.875147155500	557.243478653719	565.837469083178	699.462104062805	627.825986808369	363.577796254295	32.974038894154	437.582348155756	645.722705459693	494.360362549299	581.386866721729	434.966953189073	27.171531665165	364.900674700373	526.940531847724	1155.432955626409	673.936337248990	660.774944888597	1235.595816320715	475.586000341995	323.350024453517	528.041307949631	603.275114016011	596.433296345953	1384.547502729744	356.007050871126	658.943574976244	641.807917583353	564.661607333102	489.317669123374	230.135140785028	364.042104738120	494.673680460751	486.087245618591	611.088662927727	594.384055561152	721.576109606395	281.631477197604	637.928443319720	753.626142630420	556.597492211735	563.202991470870	992.185566051593	521.572553978811	566.649266053008	951.302526731190	260.708852645855	506.291332977660	382.032108822824	328.726954645133	548.133581206014	490.712072432988	336.364970813751	394.448787017210	1008.059992319989	390.284006971272	486.999612639961	652.592264087680	251.483520496726	566.137046210102	599.232901527411	307.951126600987	
153	2.520000000000	650.416882883792	42.590711797349	367.139524562126	461.169475399853	1482.280053766424	355.273642465625	150.297181607494	379.593093760435	649.097750393557	505.422260316923	1460.981708602071	500.183532344974	518.843298755310	1072.066383197604	-42.219705997649	413.090101889125	322.131217406159	296.898884425176	329.756718245076	1140.362952012811	119.595663750565	461.919624734458	583.999839423492	646.683264055777	487.036133866515	1442.650524778315	208.288984964992	139.158722934009	595.913700962020	636.695363084620	532.068439560398	89.713008692061	388.967643054689	198.579611522548	499.826937626574	611.105347249201	141.649339591911	663.601227712118	557.172536952701	566.405797017533	699.656568277650	627.751016733222	363.578569673205	32.972640816804	437.588430854159	646.547096243997	494.653356541910	581.206293247560	434.968258504295	27.171742961445	364.903731641085	527.183293196982	1155.310778638241	673.778880410320	660.907009514416	1235.459197469306	475.354441677799	324.213250285453	528.557975544364	603.145233354155	596.552391948890	1384.477950008644	355.875910909402	659.534572775533	642.156376781784	564.434561408912	489.266547617067	230.128197497932	363.979298807684	495.502212986530	486.420718734353	610.941186017909	594.232742875421	721.574698993485	281.368592706422	638.256609812340	753.917185244697	556.365158469686	563.251069327024	992.138638936575	521.405001746763	566.460310318118	951.275693084543	260.533450561124	506.202260085334	382.016818412579	328.633357783625	548.046261687975	490.716270342414	336.210861595405	394.387749056869	1008.120864766047	390.242888290373	486.803122325328	652.583928288598	251.384450610726	565.996462802428	599.224433300827	307.743509943166	
154	2.530000000000	650.418851606482	42.594272526335	367.134901217272	461.354667060014	1482.303043622985	355.271976954594	150.998814887915	380.222629371865	648.876145682792	505.704008017060	1460.926958856786	500.138878467341	518.651426629279	1072.197683710085	-42.346213459648	412.985659849665	322.124241713225	296.841136299402	329.637907703452	1140.489160947942	119.551552226480	462.790239015902	584.304482059988	646.600466896323	487.070729404494	1442.689263877188	208.256273223512	140.065755919112	596.554708243173	636.606936115931	532.077059055067	89.718820191658	388.953436440765	199.396098215944	500.431427157163	610.963254762346	142.621095690100	664.285537570146	557.123513032249	566.973320949476	699.829105661747	627.649299382330	363.579331117044	32.971184249721	437.594692720106	647.343718918751	494.917904235107	580.987911606765	434.969848960140	27.172095479788	364.907054840619	527.429289306363	1155.191800330118	673.617205134905	661.034518876585	1235.330675295890	475.115041152183	325.049941980435	529.035335159893	603.013192450153	596.654671024053	1384.411149219347	355.736487137516	660.111753288486	642.474620725989	564.172411002925	489.217845155108	230.120465567255	363.913889109400	496.306818363137	486.723603946873	610.771638495759	594.098657448295	721.575154337765	281.099585617313	638.587260504250	754.181567284179	556.103622148628	563.314902010077	992.092085077685	521.236224622384	566.282095402464	951.254281933006	260.355875351242	506.119303735865	381.999373393699	328.535334429833	547.971381416000	490.718205986515	336.050589270048	394.337202205464	1008.171779484374	390.207809247124	486.619396613741	652.575620241923	251.286371892720	565.874184087030	599.219265528269	307.527569197475	
155	2.540000000000	650.420428203910	42.599383963043	367.130244210748	461.517375322310	1482.320511041666	355.262996883520	151.659157297280	380.834570555969	648.656238367263	505.967549476642	1460.873077019952	500.087674842015	518.442731407692	1072.316999531334	-42.484220980821	412.881224617959	322.118440721984	296.779771682152	329.506611490506	1140.600673910981	119.504380041421	463.635705349609	584.583980684846	646.500240733262	487.082188000096	1442.719642146814	208.217751538754	140.945893960282	597.178539331808	636.528253788428	532.085911301593	89.725343263341	388.938724293397	200.177101596025	501.015865715256	610.824203505884	143.565889814815	664.955155749333	557.085365754121	567.536718294715	699.979177632723	627.524826555997	363.580136432154	32.969674882705	437.601149069989	648.106234339852	495.151714599721	580.740836449189	434.971740925397	27.172627653922	364.910684676220	527.676683807937	1155.077659926947	673.454544987844	661.157064044198	1235.210656574076	474.871260800352	325.855370810161	529.489957730683	602.877332692223	596.740852835513	1384.347407124780	355.590258514485	660.673051788626	642.759684517963	563.883276315177	489.170412307596	230.112331065273	363.845624006124	497.080012400074	487.001488017609	610.584812616264	593.977365076454	721.576965607737	280.826400886912	638.920165777431	754.416554395805	555.818696967631	563.398191092437	992.045489175018	521.065189346629	566.114155177775	951.237877206771	260.174203067178	506.040222547536	381.980041569583	328.432199151224	547.906297219468	490.718042806902	335.882690090028	394.298425525374	1008.212659133877	390.178792994724	486.446009267412	652.567591592397	251.187654432318	565.765690679121	599.217051560129	307.303718735941	
156	2.550000000000	650.421500916429	42.606302097073	367.125518913130	461.657815272226	1482.332605948027	355.247376239950	152.263579170497	381.454903960240	648.437241124224	506.212976080699	1460.820433720810	500.030856786112	518.218313368228	1072.422770366835	-42.632193111169	412.774927119846	322.113498930722	296.715069598709	329.364135853142	1140.696878196867	119.455943123230	464.452878904089	584.846642496838	646.384546001641	487.071053402978	1442.742043630704	208.174276347815	141.797169023562	597.811368033697	636.451034247186	532.094863601297	89.732688610709	388.923377701569	200.915760278994	501.602262280061	610.684687210336	144.488052306033	665.633385454779	557.047888749253	568.092262888365	700.106716343571	627.382272268355	363.581044324953	32.968126957492	437.607817192888	648.828374552428	495.353068264370	580.475410164443	434.973941159265	27.173375667588	364.914671322088	527.924288078630	1154.969733219286	673.293879726965	661.274447724434	1235.099437581964	474.626149693462	326.624595442285	529.936452355801	602.736782826218	596.811768668883	1384.287092787032	355.438546394610	661.216218460113	643.009106969582	563.576374792109	489.123350184248	230.104134967014	363.774376960046	497.814317785980	487.259489143080	610.386378440997	593.864809594387	721.579537237499	280.550155222743	639.254982075417	754.619883559222	555.517092615907	563.504933021740	991.998625257554	520.890681860756	565.955966302987	951.225928832570	259.986303007957	505.963172163984	381.959038478060	328.323358635558	547.848747252827	490.715910073983	335.705693256884	394.272759585293	1008.243591262745	390.155642852496	486.281025794323	652.560109135483	251.086534579727	565.666791736707	599.217272747407	307.071987106925	
